<svg height="512pt" viewBox="0 0 512 512" width="512pt" xmlns="http://www.w3.org/2000/svg"><path d="m315 242h-41.398438c-15.902343 0-30 8.097656-38.402343 21.300781-8.097657 13.5-9 29.699219-1.796875 43.800781l12.296875 24.898438 26.175781 13.75 7.425781-13.75-19.199219-38.402344c-3.300781-6.597656-.601562-12.296875.597657-14.398437 1.5-2.097657 5.402343-7.199219 12.902343-7.199219h41.398438c8.402344 0 15 6.597656 15 15 0 8.398438-6.597656 15-15 15s-15 6.597656-15 15c0 8.398438 6.597656 15 15 15 24.902344 0 45-20.101562 45-45 0-24.902344-20.097656-45-45-45zm0 0" fill="#444"/><path d="m315 512c-41.351562 0-75-33.648438-75-75s33.648438-75 75-75 75 33.648438 75 75-33.648438 75-75 75zm0-120c-24.8125 0-45 20.1875-45 45s20.1875 45 45 45 45-20.1875 45-45-20.1875-45-45-45zm0 0" fill="#292929"/><path d="m75 512c-41.351562 0-75-33.648438-75-75s33.648438-75 75-75 75 33.648438 75 75-33.648438 75-75 75zm0-120c-24.8125 0-45 20.1875-45 45s20.1875 45 45 45 45-20.1875 45-45-20.1875-45-45-45zm0 0" fill="#444"/><path d="m452 197v298.800781h-30v-298.800781c0-8.402344 6.597656-15 15-15s15 6.597656 15 15zm0 0" fill="#6e6e6e"/><path d="m452 197v298.800781h-15v-313.800781c8.402344 0 15 6.597656 15 15zm0 0" fill="#444"/><path d="m437 0c-41.398438 0-75 33.601562-75 75s33.601562 75 75 75 75-33.601562 75-75-33.601562-75-75-75zm0 0" fill="#3aaaff"/><path d="m497 150h-120c-8.402344 0-15 6.597656-15 15v32c0 8.398438 6.597656 15 15 15h120c8.402344 0 15-6.601562 15-15v-32c0-8.402344-6.597656-15-15-15zm0 0" fill="#e2e2e7"/><path d="m512 75c0 41.398438-33.601562 75-75 75v-150c41.398438 0 75 33.601562 75 75zm0 0" fill="#0095ff"/><path d="m512 165v32c0 8.398438-6.597656 15-15 15h-60v-62h60c8.402344 0 15 6.597656 15 15zm0 0" fill="#babac0"/><path d="m482 497c0 8.398438-6.597656 15-15 15h-60c-8.402344 0-15-6.601562-15-15 0-8.402344 6.597656-15 15-15h60c8.402344 0 15 6.597656 15 15zm0 0" fill="#e2e2e7"/><path d="m482 497c0 8.398438-6.597656 15-15 15h-30v-30h30c8.402344 0 15 6.597656 15 15zm0 0" fill="#babac0"/><path d="m154.5 322.699219-10.199219-20.699219-19.300781-17.5-14.300781 17.5 11.703125 23.097656 15.296875 30.601563 10.5-8.699219 18-1.199219zm0 0" fill="#ff4949"/><path d="m180 287c0 8.398438-6.597656 15-15 15h-75c-8.402344 0-15-6.601562-15-15 0-8.402344 6.597656-15 15-15h75c8.402344 0 15 6.597656 15 15zm0 0" fill="#5a5a5a"/><path d="m328.5 430.398438-43.5-87-.796875-1.589844c-.429687-1.410156-1.085937-2.652344-1.914063-3.832032l-2.988281-5.976562h-129.300781c-4.5 0-8.699219 2.101562-11.398438 5.398438l-75 90c-5.402343 6.300781-4.503906 15.902343 1.796876 21 2.703124 2.402343 6.300781 3.601562 9.601562 3.601562 4.199219 0 8.699219-1.800781 11.398438-5.398438l60.300781-72.300781 24 47.699219h-35.699219c-8.402344 0-15 6.597656-15 15 0 8.398438 6.597656 15 15 15h60c3.601562 0 7.800781-1.5 11.101562-5.101562.296876-.296876.296876-.597657.597657-.898438.304687-.300781.601562-.300781.902343-.601562l54.296876-81.296876 39.601562 79.496094c2.699219 5.402344 8.101562 8.402344 13.5 8.402344 2.402344 0 4.5-.601562 6.597656-1.5 7.5-3.898438 10.503906-12.902344 6.902344-20.101562zm-131.699219-23.398438-22.5-45h52.800781zm0 0" fill="#ff4949"/></svg>