<svg id="Layer_3" enable-background="new 0 0 64 64" height="512" viewBox="0 0 64 64" width="512" xmlns="http://www.w3.org/2000/svg"><path d="m12 29c-5.523 0-10 4.477-10 10s4.477 10 10 10 10-4.477 10-10-4.477-10-10-10zm0 16c-3.314 0-6-2.686-6-6s2.686-6 6-6 6 2.686 6 6-2.686 6-6 6z" fill="#8892a0"/><path d="m52 29c-5.523 0-10 4.477-10 10s4.477 10 10 10 10-4.477 10-10-4.477-10-10-10zm0 16c-3.314 0-6-2.686-6-6s2.686-6 6-6 6 2.686 6 6-2.686 6-6 6z" fill="#8892a0"/><path d="m37 13h6c1.105 0 2 .895 2 2 0 1.105-.895 2-2 2h-6c-1.105 0-2-.895-2-2 0-1.105.895-2 2-2z" fill="#3d98f7"/><path d="m2 49h60v2h-60z" fill="#4d5d7a"/><path d="m12.932 39.362-1.864-.725 6.932-17.825v-3.812h2v4c0 .124-.023.247-.068.362z" fill="#f9d18b"/><g fill="#8892a0"><path d="m40 17h2v4h-2z"/><path d="m24 18h-8c-1.654 0-3-1.346-3-3s1.346-3 3-3v2c-.551 0-1 .449-1 1s.449 1 1 1h8z"/><path d="m35 44h-5c-.552 0-1-.448-1-1v-5h2v4h4z"/></g><path d="m52.854 38.479-11-18-.004.002c-.181-.296-.501-.481-.85-.481h-22c-.362 0-.695.195-.872.511-.177.315-.17.702.019 1.011l11 18c.182.297.505.478.853.478h22c.362 0 .695-.195.872-.511.177-.315.17-.702-.018-1.01zm-32.071-16.479h18.434l-9.217 15.082zm11 16 9.217-15.082 9.217 15.082z" fill="#f5b953"/></svg>