<svg enable-background="new 0 0 110 110" height="512" viewBox="0 0 110 110" width="512" xmlns="http://www.w3.org/2000/svg"><path d="m54.9999313 17.5010452c-20.7056007 0-37.4988174 16.7820435-37.4988174 37.4989548 0 20.7057419 16.7932148 37.4989548 37.4988174 37.4989548 20.7170487 0 37.4989548-16.7932129 37.4989548-37.4989548 0-20.7169113-16.7819061-37.4989548-37.4989548-37.4989548zm.0004197 58.8205185c-11.780304 0-21.321846-9.5521545-21.321846-21.3221207 0-11.780304 9.5415421-21.33218 21.321846-21.33218 11.7804413 0 21.3324585 9.5518761 21.3324585 21.33218-.0000001 11.7699662-9.5520173 21.3221207-21.3324585 21.3221207z" fill="#dd584d"/><g fill="#ededed"><path d="m48.0702744 36.0322609c2.1620979-.7912178 4.4997253-1.2229958 6.929657-1.2229958 2.4297905 0 4.7675591.431778 6.9296532 1.2229958.8843613.3236923 1.8384056-.2396278 1.9550056-1.1741219l1.9529114-15.6609859c.0893707-.7172089-.3577652-1.4045315-1.0572357-1.5869064-3.1261978-.8143997-6.3995743-1.2531586-9.7803345-1.2531586-3.380764 0-6.6541405.4387589-9.7803345 1.2531586-.6994705.182375-1.1466103.8696976-1.0572395 1.5869064l1.9529114 15.6609859c.1166038.9344941 1.0706443 1.4978142 1.9550056 1.1741219z"/><path d="m61.9294472 73.9562912c-2.1620979.7914963-4.4997253 1.2232742-6.9295158 1.2232742-2.4297943 0-4.7672806-.431778-6.9295158-1.2232742-.8843613-.3236923-1.8385429.239624-1.9550056 1.174118l-1.9530525 15.6727142c-.0895081.7172089.357769 1.4045334 1.0572395 1.5866318 3.126194.8143997 6.3995705 1.2531586 9.7803345 1.2531586 3.3807602 0 6.6541367-.4387589 9.7803345-1.2531586.6994705-.1820984 1.1467438-.8694229 1.0572357-1.5866318l-1.9530487-15.6727142c-.1164629-.934494-1.0706484-1.4978103-1.9550058-1.174118z"/><path d="m92.3895416 45.2199478c-.1820908-.699894-.8694153-1.1467514-1.5866241-1.0573807l-15.6611252 1.952774c-.934494.1164589-1.497673 1.0705032-1.1741257 1.9550018.791359 2.1622392 1.2231369 4.4998666 1.2231369 6.9296571 0 2.4381714-.431633 4.7702141-1.222435 6.9293747-.3239746.8845024.2390671 1.8388252 1.1738434 1.9552841l15.6607056 1.9530487c.7172089.0893784 1.4045334-.3577652 1.5866241-1.057373.8143997-3.1260567 1.2533036-6.3995705 1.2533036-9.7803345 0-3.3804817-.4389039-6.6542778-1.2533036-9.7800522z"/><path d="m34.869381 46.1153412-15.6724377-1.952774c-.7173481-.0893707-1.4045315.3574867-1.5866261 1.0571022-.8143997 3.1260528-1.2531585 6.3998489-1.2531585 9.7803306 0 3.3810425.4387589 6.6542778 1.2531586 9.7806091.1820946.6993332.8694191 1.1464767 1.5866261 1.0570984l15.6720181-1.9530487c.9347725-.1164589 1.4979553-1.0710602 1.1739807-1.9555626-.7906572-2.1588821-1.2224352-4.4909248-1.2224352-6.9290962 0-2.4297905.4319153-4.7674179 1.2231331-6.929657.323555-.8844986-.2397651-1.8385429-1.1742591-1.9550018z"/></g></svg>