<?xml version="1.0" encoding="iso-8859-1"?>
<!-- Generator: Adobe Illustrator 19.0.0, SVG Export Plug-In . SVG Version: 6.00 Build 0)  -->
<svg version="1.1" id="Capa_1" xmlns="http://www.w3.org/2000/svg" xmlns:xlink="http://www.w3.org/1999/xlink" x="0px" y="0px"
	 viewBox="0 0 511.434 511.434" style="enable-background:new 0 0 511.434 511.434;" xml:space="preserve">
<path style="fill:#94C1FF;" d="M60.074,39.731c-0.008,0.008-0.012,0.023-0.027,0.031L8.827,90.981
	c-0.008,0.008-0.02,0.016-0.027,0.023c-6.242,6.242-6.242,16.354-0.004,22.589c1.003,1.002,2.13,1.786,3.301,2.465l173.949,173.957
	l28.67-6.055l5.645,5.649l39.547-39.543l-5.648-5.649l5.235-27.852L82.67,39.735c-0.008,0-0.008,0-0.008,0
	C76.424,33.492,66.308,33.488,60.074,39.731z"/>
<g>
	<path style="fill:#5C9EFF;" d="M206.02,236.155c4.689-4.689,4.631-12.309-0.004-16.943L67.881,82.659
		c-4.631-4.631-12.316-4.631-16.943,0.109c-4.689,4.576-4.635,12.203,0,16.838l138.131,136.548
		C193.703,240.789,201.33,240.844,206.02,236.155z"/>
	<path style="fill:#5C9EFF;" d="M234.881,207.297c4.689-4.689,4.631-12.312-0.004-16.947L96.742,53.798
		c-4.63-4.631-12.316-4.631-16.943,0.109c-4.693,4.576-4.635,12.207-0.004,16.838L217.93,207.297
		C222.565,211.932,230.188,211.986,234.881,207.297z"/>
	<path style="fill:#5C9EFF;" d="M177.954,264.22c4.689-4.689,4.635-12.312,0-16.947L39.819,110.721
		c-4.63-4.631-12.316-4.631-16.943,0.113c-4.693,4.576-4.634,12.203-0.004,16.834L161.007,264.22
		C165.642,268.855,173.265,268.902,177.954,264.22z"/>
</g>
<path style="fill:#94C1FF;" d="M355.855,78.126l25.382,24.23l0.383,12.832l-18.866,0.562l-78.189-37.062l5.423-11.415
	C336.147-2.04,397.389,4.163,397.389,4.163L355.855,78.126z"/>
<path style="fill:#FFFFFF;" d="M295.636,72.922C331.223,19.49,375.65,10.97,394.197,9.851l3.191-5.688
	c0,0-61.242-6.203-107.401,63.11l-2.185,4.611l6.796,3.23L295.636,72.922z"/>
<polygon style="fill:#94C1FF;" points="381.237,102.357 381.619,115.189 362.753,115.75 330.552,100.488 340.492,90.556 
	355.855,78.126 "/>
<g>
	<path style="fill:#2287FF;" d="M8.827,90.981c-0.008,0.008-0.02,0.016-0.027,0.023s-0.016,0.02-0.023,0.031L8.827,90.981z"/>
	<path style="fill:#2287FF;" d="M60.074,39.731c-0.008,0.008-0.012,0.023-0.027,0.031l-5.591,5.594
		c6.234-6.215,16.327-6.207,22.557,0.023c0,0,0,0.004,0.004,0.004l176.828,176.832l-5.236,27.852l5.649-5.649l5.235-27.852
		L82.67,39.735c-0.008,0-0.008,0-0.008,0C76.424,33.492,66.308,33.488,60.074,39.731z"/>
</g>
<polygon style="fill:#FFFFFF;" points="408.576,421.346 442.471,432.629 476.372,489.135 459.417,506.081 402.928,472.188 
	391.622,438.293 271.799,318.463 256.604,303.248 254.286,300.938 271.175,283.929 273.546,286.301 287.841,300.595 "/>
<polygon style="fill:#94C1FF;" points="470.716,483.486 453.769,500.433 401.984,469.363 402.928,472.188 459.417,506.081 
	476.372,489.135 442.471,432.629 439.646,431.693 "/>
<g>
	<polygon style="fill:#5C9EFF;" points="313.261,148.29 328.687,152.528 320.604,166.821 305.178,162.588 	"/>
	<polygon style="fill:#5C9EFF;" points="328.687,152.528 344.05,156.713 336.029,171.058 320.604,166.821 	"/>
</g>
<path style="fill:#94C1FF;" d="M344.05,156.713l-15.363-4.186l-15.426-4.237l-8.083,14.298l15.426,4.233l15.425,4.236
	L344.05,156.713z M304.054,129.143l53.9,14.798l-13.725,50.115c-4.081,14.802-19.444,23.61-34.354,19.541
	c-14.919-4.064-23.673-19.486-19.546-34.351L304.054,129.143z"/>
<path style="fill:#D7E9FF;" d="M333.657,253.882c-5.649,5.656-22.65,22.993-37.39,38.302l-8.427,8.411l-14.295-14.294l-2.371-2.372
	l28.244-28.241l-22.533-22.541l-16.951,16.946l-5.648-5.648l5.598-28.3l-17.009-16.893l-2.603-2.489l11.127-11.239
	c2.828-3.847,10.459-12.491,11.477-14.75c13.495-30.895,5.927-94.29,8.587-98.304l13.101,6.218l78.189,37.062l18.866-0.562
	l42.43-1.19l55.429-83.327c0,0,63.045,74.573,0.047,160.498C427.904,254.225,363.431,224.108,333.657,253.882z M357.954,143.941
	l-53.9-14.798l-13.725,50.104c-4.127,14.864,4.627,30.286,19.546,34.351c14.91,4.069,30.273-4.739,34.354-19.541L357.954,143.941z"
	/>
<polygon style="fill:#5C9EFF;" points="362.753,115.75 381.619,115.189 381.447,109.711 368.402,110.101 290.213,73.039 
	287.794,71.888 284.564,78.688 "/>
<path style="fill:#94C1FF;" d="M473.876,185.52c-51.629,63.056-116.094,32.938-145.868,62.713
	c-5.649,5.656-22.65,22.994-37.397,38.303l-8.419,8.41l5.649,5.649l8.427-8.411c14.739-15.309,31.74-32.646,37.39-38.302
	c29.773-29.774,94.246,0.343,145.867-62.713c62.998-85.925-0.047-160.498-0.047-160.498l-0.726,1.093
	C492.259,51.903,525.685,114.849,473.876,185.52z"/>
<path style="fill:#FFFFFF;" d="M245.992,202.346l11.056-11.173c2.828-3.843,10.459-12.488,11.474-14.751
	c13.499-30.894,5.931-94.285,8.591-98.3l13.101,6.215l78.188,37.062l18.866-0.562l42.431-1.189l54.703-82.234
	c-2.918-4.351-4.924-6.742-4.924-6.742l-55.429,83.327l-42.43,1.19l-18.866,0.562l-78.189-37.062l-13.101-6.218
	c-2.66,4.014,4.908,67.409-8.587,98.304c-1.018,2.259-8.648,10.903-11.477,14.75l-11.127,11.239l2.603,2.489L245.992,202.346z"/>
<path style="fill:#D7E9FF;" d="M168.747,272.022l0.796,0.781l15.082,14.98l-7.178,7.287L70.502,400.311
	c0,0,16.838-5.742,33.785,11.205c16.951,16.946,11.583,34.175,11.583,34.175l105.255-109.314l4.916-7.178l28.245-28.262l2.317,2.311
	l15.195,15.215l-7.576,7.553c-64.348,67.07-151.178,157.859-157.958,164.633c-22.366,22.393-58.644,22.377-81.013,0
	c-22.377-22.362-22.319-58.582-0.004-81.006c8.419-8.411,78.926-74.639,136.158-130.161L168.747,272.022z M85.533,430.382
	c-10.907-10.908-28.646-10.908-39.551,0c-10.904,10.892-10.904,28.635,0,39.543c10.959,10.954,28.647,10.907,39.555,0
	C96.438,459.017,96.485,441.336,85.533,430.382z"/>
<path style="fill:#94C1FF;" d="M266.142,312.814l-7.568,7.553c-64.347,67.07-151.177,157.86-157.958,164.632
	c-21.414,21.426-55.546,22.284-78.048,2.685c0.874,1.014,1.729,2.013,2.684,2.965c22.37,22.377,58.647,22.393,81.013,0
	c6.78-6.773,93.61-97.562,157.958-164.633l7.576-7.553l-15.195-15.215l-2.317-2.311h-0.004L266.142,312.814z"/>
<path style="fill:#FFFFFF;" d="M30.897,415.291c8.419-8.41,78.926-74.639,136.157-130.161l7.343-7.459l0.796,0.78l9.409,9.348
	l0.023-0.016l-15.082-14.98l-0.796-0.781l-7.342,7.46c-57.231,55.522-127.738,121.75-136.157,130.161
	c-22.315,22.424-22.374,58.644,0.004,81.006c0.952,0.967,1.962,1.81,2.969,2.684C8.632,470.846,9.533,436.764,30.897,415.291z"/>
<g>
	<path style="fill:#94C1FF;" d="M186.436,289.594l28.3-5.603l5.648,5.649l-16.947,16.947l22.604,22.612l-4.916,7.178L115.87,445.691
		c0,0,5.368-17.229-11.583-34.175c-16.947-16.947-33.785-11.205-33.785-11.205l106.945-105.24l7.178-7.287L186.436,289.594z"/>
	
		<rect x="199.491" y="265.152" transform="matrix(-0.7071 0.7071 -0.7071 -0.7071 627.9924 302.1178)" style="fill:#94C1FF;" width="103.869" height="31.937"/>
</g>
<g>
	<path style="fill:#D7E9FF;" d="M60.074,39.731c-0.008,0.008-0.012,0.023-0.027,0.031l0.055-0.051
		C60.09,39.719,60.082,39.723,60.074,39.731z"/>
	<path style="fill:#D7E9FF;" d="M222.709,275.986l-28.674,6.04L20.082,108.069c-1.166-0.679-2.294-1.463-3.296-2.462
		c-6.226-6.23-6.234-16.326-0.012-22.568l-7.947,7.942c-0.008,0.008-0.02,0.016-0.027,0.023c-6.242,6.242-6.242,16.354-0.004,22.589
		c1.003,1.002,2.13,1.786,3.301,2.465l173.949,173.957l28.67-6.055L222.709,275.986z"/>
</g>
<rect x="209.34" y="263.005" transform="matrix(-0.7071 0.7071 -0.7071 -0.7071 593.8976 287.9981)" style="fill:#2287FF;" width="55.924" height="7.989"/>
<g>
	<polygon style="fill:#D7E9FF;" points="276.855,289.625 259.911,306.556 254.286,300.938 271.23,283.991 	"/>
	
		<rect x="213.608" y="299.017" transform="matrix(-0.707 0.7072 -0.7072 -0.707 594.2869 383.9829)" style="fill:#D7E9FF;" width="7.989" height="32.16"/>
</g>
<polygon style="fill:#2287FF;" points="299.489,255.977 293.833,261.625 271.097,238.885 276.745,233.237 "/>
<g>
	<path style="fill:#116FFF;" d="M65.762,482.113c-8.528,0-16.557-3.324-22.604-9.363c-6.027-6.023-9.348-14.06-9.348-22.596
		c0-8.552,3.32-16.573,9.348-22.597c6.027-6.039,14.048-9.347,22.596-9.347c8.544,0,16.573,3.308,22.604,9.347
		c12.453,12.453,12.453,32.725,0.008,45.192C82.323,478.788,74.298,482.113,65.762,482.113z M65.754,426.199
		c-6.409,0-12.429,2.481-16.947,7.007c-4.518,4.51-7.006,10.533-7.006,16.947c0,6.413,2.489,12.421,7.006,16.946
		c9.074,9.067,24.847,9.067,33.906,0c9.336-9.347,9.336-24.562-0.004-33.894C78.188,428.681,72.164,426.199,65.754,426.199z"/>
	<path style="fill:#116FFF;" d="M296.268,296.179c-0.999,0-1.998-0.375-2.771-1.108c-1.592-1.529-1.639-4.057-0.109-5.648
		c14.755-15.34,31.788-32.7,37.445-38.365c12.998-12.999,31.201-15.312,52.284-17.996c29.798-3.788,63.566-8.084,93.317-44.424
		c1.396-1.705,3.917-1.958,5.618-0.558c1.709,1.396,1.958,3.913,0.562,5.621c-31.764,38.803-68.764,43.507-98.49,47.287
		c-19.624,2.497-36.578,4.65-47.643,15.719c-5.642,5.648-22.619,22.962-37.335,38.255
		C298.359,295.774,297.314,296.179,296.268,296.179z"/>
	<path style="fill:#116FFF;" d="M65.762,511.434c0,0,0,0-0.004,0c-16.369,0-31.756-6.382-43.331-17.961
		c-23.836-23.829-23.844-62.701-0.012-86.639c3.191-3.199,15.102-14.497,31.593-30.149c27.391-26.014,68.783-65.307,104.616-100.075
		c1.587-1.529,4.108-1.498,5.649,0.078c1.537,1.592,1.498,4.12-0.086,5.649c-35.864,34.799-77.276,74.124-104.678,100.138
		c-16.448,15.604-28.327,26.887-31.436,29.992C7.349,433.3,7.345,467.1,28.077,487.823c10.065,10.065,23.45,15.621,37.682,15.621
		c0.004,0,0.004,0,0.004,0c14.236,0,27.617-5.54,37.679-15.621c4.299-4.291,41.299-42.913,84.138-87.622l73.76-76.948
		c1.525-1.591,4.046-1.653,5.646-0.108c1.592,1.514,1.646,4.041,0.117,5.633l-73.753,76.948
		c-42.875,44.755-79.901,83.394-84.259,87.747C97.522,505.052,82.132,511.434,65.762,511.434z"/>
	<path style="fill:#116FFF;" d="M251.396,189.519c-0.819,0-1.65-0.254-2.364-0.776c-1.775-1.307-2.158-3.808-0.851-5.587
		c1.124-1.525,2.98-3.792,4.904-6.133c2.235-2.719,5.614-6.831,6.164-7.919c8.985-20.571,8.212-57.044,7.752-78.833
		c-0.312-14.832-0.249-17.922,1.132-20.01c1.217-1.837,3.69-2.348,5.539-1.123c1.678,1.116,2.24,3.285,1.396,5.052
		c-0.374,1.811-0.226,8.978-0.077,15.909c0.476,22.452,1.264,60.021-8.458,82.273c-0.772,1.729-2.91,4.413-7.276,9.727
		c-1.813,2.208-3.577,4.346-4.638,5.793C253.834,188.957,252.624,189.519,251.396,189.519z"/>
	<path style="fill:#116FFF;" d="M479.525,195.164c-0.819,0-1.646-0.25-2.364-0.772c-1.778-1.308-2.161-3.804-0.858-5.583
		c51.973-70.894,15.099-134.367,3.363-151.209l-52.292,78.61c-0.718,1.081-1.912,1.744-3.215,1.783l-61.289,1.752
		c-2.169,0.027-4.049-1.674-4.111-3.878s1.669-4.046,3.878-4.112l59.236-1.693l54.282-81.603c0.694-1.045,1.841-1.704,3.097-1.774
		c1.093-0.07,2.458,0.444,3.277,1.408c0.648,0.769,64.332,77.985,0.219,165.437C481.967,194.598,480.749,195.164,479.525,195.164z"
		/>
	<path style="fill:#116FFF;" d="M381.237,106.352c-0.991,0-1.981-0.366-2.762-1.104l-25.382-24.231
		c-1.318-1.26-1.615-3.257-0.718-4.845L390.592,8.11c-16.511,0.745-61.687,7.932-97.281,61.379c-1.218,1.829-3.706,2.336-5.54,1.107
		c-1.834-1.221-2.333-3.702-1.108-5.54C333.611-5.43,395.149-0.07,397.794,0.187c1.334,0.137,2.52,0.94,3.137,2.135
		c0.623,1.193,0.6,2.621-0.062,3.796l-40.012,71.259L384,99.466c1.592,1.525,1.654,4.054,0.125,5.649
		C383.343,105.939,382.29,106.352,381.237,106.352z"/>
	<path style="fill:#116FFF;" d="M362.753,119.745c-0.578,0-1.155-0.125-1.709-0.387l-91.297-43.28
		c-1.99-0.944-2.841-3.328-1.896-5.321c0.952-1.994,3.332-2.84,5.321-1.896l91.289,43.281c1.997,0.943,2.849,3.327,1.904,5.321
		C365.679,118.903,364.243,119.745,362.753,119.745z"/>
	<path style="fill:#116FFF;" d="M340.492,94.551c-1.249,0-2.474-0.582-3.254-1.678c-1.279-1.799-0.858-4.292,0.937-5.571
		l13.725-9.776c1.787-1.275,4.283-0.866,5.57,0.937c1.28,1.798,0.858,4.291-0.936,5.57l-13.725,9.777
		C342.107,94.309,341.296,94.551,340.492,94.551z"/>
	<path style="fill:#116FFF;" d="M317.256,218.587C317.248,218.587,317.256,218.587,317.256,218.587c-2.84,0-5.672-0.383-8.435-1.136
		c-8.239-2.247-15.113-7.576-19.334-15.008c-4.222-7.428-5.291-16.046-3.012-24.266l13.725-50.092
		c0.28-1.022,0.959-1.889,1.88-2.415c0.921-0.531,2.013-0.671,3.035-0.379l53.899,14.798c2.123,0.581,3.371,2.777,2.794,4.903
		l-13.725,50.116C344.269,208.935,331.597,218.587,317.256,218.587z M306.856,134.055l-12.671,46.249
		c-1.717,6.168-0.913,12.624,2.246,18.188c3.168,5.571,8.318,9.566,14.498,11.251c12.53,3.406,26.021-4.334,29.446-16.748
		l12.671-46.257L306.856,134.055z"/>
	<path style="fill:#116FFF;" d="M346.032,161.203c-0.32,0-0.641-0.039-0.968-0.121l-38.614-10.525
		c-2.131-0.585-3.379-2.781-2.794-4.911c0.585-2.127,2.778-3.391,4.915-2.79l38.428,10.479c2.146,0.535,3.441,2.704,2.91,4.842
		C349.457,159.994,347.826,161.203,346.032,161.203z"/>
	<path style="fill:#116FFF;" d="M341.803,176.633c-0.343,0-0.702-0.047-1.054-0.141l-38.497-10.568
		c-2.122-0.589-3.371-2.793-2.778-4.92c0.594-2.126,2.786-3.366,4.916-2.781l38.467,10.561c2.13,0.585,3.378,2.782,2.801,4.908
		C345.173,175.466,343.559,176.633,341.803,176.633z"/>
	<path style="fill:#116FFF;" d="M301.175,173.75c-0.655,0-1.326-0.164-1.942-0.508c-1.927-1.072-2.614-3.507-1.537-5.435
		l16.159-28.709c1.084-1.935,3.542-2.609,5.438-1.521c1.928,1.081,2.606,3.52,1.521,5.438l-16.143,28.686
		C303.938,173.013,302.579,173.75,301.175,173.75z"/>
	<path style="fill:#116FFF;" d="M316.593,177.998c-0.663,0-1.334-0.164-1.95-0.507c-1.92-1.077-2.614-3.508-1.537-5.435
		l16.167-28.721c1.076-1.928,3.519-2.614,5.438-1.525c1.92,1.08,2.606,3.519,1.521,5.441l-16.15,28.698
		C319.347,177.261,317.989,177.998,316.593,177.998z"/>
	<path style="fill:#116FFF;" d="M332.019,182.228c-0.663,0-1.334-0.164-1.951-0.508c-1.927-1.076-2.613-3.511-1.537-5.438
		l16.104-28.76c1.077-1.923,3.527-2.609,5.438-1.525c1.92,1.081,2.606,3.519,1.521,5.442l-16.089,28.744
		C334.773,181.49,333.415,182.228,332.019,182.228z"/>
	<path style="fill:#116FFF;" d="M327.782,197.656c-0.352,0-0.711-0.047-1.062-0.145l-23.111-6.39
		c-2.13-0.589-3.378-2.789-2.785-4.916c0.593-2.126,2.801-3.362,4.915-2.785l23.104,6.391c2.13,0.589,3.379,2.789,2.785,4.915
		C331.145,196.498,329.537,197.656,327.782,197.656z"/>
	<path style="fill:#116FFF;" d="M70.502,404.306c-1.034,0-2.063-0.39-2.848-1.187c-1.549-1.576-1.525-4.104,0.047-5.648
		l106.944-105.24c1.564-1.561,4.089-1.529,5.649,0.047c1.549,1.561,1.525,4.104-0.047,5.648L73.303,403.166
		C72.527,403.932,71.513,404.306,70.502,404.306z"/>
	<path style="fill:#116FFF;" d="M115.87,449.686c-0.999,0-1.998-0.375-2.77-1.124c-1.592-1.529-1.639-4.058-0.109-5.649
		l105.256-109.312c1.537-1.576,4.073-1.623,5.649-0.109c1.592,1.529,1.638,4.057,0.109,5.648L118.749,448.452
		C117.965,449.264,116.915,449.686,115.87,449.686z"/>
	<path style="fill:#116FFF;" d="M115.87,449.686c-0.394,0-0.792-0.062-1.19-0.188c-2.106-0.656-3.281-2.887-2.625-4.994
		c0.175-0.593,4.307-15.277-10.592-30.164c-14.844-14.841-29.092-10.439-29.696-10.237c-2.08,0.687-4.346-0.437-5.041-2.528
		c-0.694-2.091,0.41-4.338,2.485-5.04c0.78-0.249,19.404-6.335,37.9,12.156c18.445,18.445,12.819,37.39,12.574,38.186
		C119.151,448.593,117.574,449.686,115.87,449.686z"/>
	<path style="fill:#116FFF;" d="M186.436,293.588c-1.05,0-2.068-0.421-2.825-1.17l-17.676-17.556L5.929,116.425
		c-7.787-7.787-7.764-20.485,0.055-28.304l50.844-50.844c7.529-7.525,20.743-7.51,28.249,0l5.594,5.594l172.03,170.438
		c0.948,0.944,1.357,2.298,1.1,3.612l-5.594,28.3c-0.434,2.161-2.532,3.573-4.697,3.145c-2.165-0.43-3.57-2.532-3.145-4.697
		l5.185-26.197L79.428,42.925c-4.498-4.502-12.444-4.494-16.951,0L11.632,93.771c-4.705,4.704-4.728,12.331-0.054,17.005
		l5.708,5.708l170.465,168.771l26.209-5.181c2.149-0.453,4.264,0.968,4.693,3.137s-0.975,4.26-3.14,4.697l-28.3,5.602
		C186.954,293.557,186.693,293.588,186.436,293.588z"/>
	<path style="fill:#116FFF;" d="M197.796,243.461L197.796,243.461c-4.284,0-8.298-1.658-11.306-4.666L48.37,102.259
		c-3.051-3.05-4.709-7.096-4.682-11.407c0.027-4.244,1.697-8.196,4.705-11.126c5.821-5.977,16.545-6.094,22.557-0.078
		l138.12,136.536c3.016,3.016,4.674,7.019,4.686,11.282c0.012,4.288-1.646,8.31-4.666,11.329
		C206.082,241.803,202.072,243.461,197.796,243.461z M59.707,83.007c-2.165,0-4.174,0.843-5.664,2.368
		c-1.537,1.498-2.349,3.437-2.364,5.527c-0.012,2.158,0.812,4.179,2.325,5.692l138.12,136.536c1.518,1.514,3.527,2.341,5.672,2.341
		l0,0c2.142,0,4.143-0.827,5.645-2.325c1.506-1.506,2.329-3.516,2.325-5.661c-0.008-2.138-0.835-4.139-2.329-5.637L65.318,85.313
		C63.827,83.822,61.838,83.007,59.707,83.007z"/>
	<path style="fill:#116FFF;" d="M178.017,268.215c-1.007,0-2.013-0.375-2.793-1.14c-1.576-1.545-1.607-4.077-0.062-5.653
		c3.094-3.167,3.105-8.247,0.027-11.325L37.018,113.62c-1.498-1.537-3.472-2.36-5.603-2.372c-2.333-0.148-4.166,0.804-5.66,2.298
		c-1.561,1.561-4.089,1.561-5.649,0c-1.561-1.557-1.561-4.089,0-5.649c3.016-3.016,6.847-4.85,11.356-4.639
		c4.284,0.023,8.267,1.701,11.224,4.729l138.135,136.442c6.176,6.172,6.191,16.296,0.051,22.584
		C180.092,267.809,179.054,268.215,178.017,268.215z"/>
	<path style="fill:#116FFF;" d="M225.998,215.173c-4.097,0-8.177-1.545-11.263-4.631L76.565,74.072
		c-6.246-6.253-6.246-16.393-0.016-22.619c1.561-1.561,4.089-1.561,5.649,0s1.561,4.089,0,5.649c-3.062,3.062-3.062,8.239,0,11.302
		l138.17,136.47c3.094,3.102,8.178,3.082,11.357-0.012c1.576-1.529,4.108-1.51,5.649,0.07c1.541,1.576,1.51,4.107-0.07,5.648
		C234.167,213.644,230.075,215.173,225.998,215.173z"/>
	<path style="fill:#116FFF;" d="M226.041,333.194c-1.058,0-2.075-0.421-2.824-1.17l-22.604-22.611c-1.561-1.561-1.561-4.089,0-5.649
		l73.449-73.441c1.561-1.561,4.088-1.561,5.648,0l22.534,22.542c1.561,1.561,1.561,4.088,0,5.648l-73.379,73.512
		C228.116,332.773,227.102,333.194,226.041,333.194z M209.086,306.587l16.955,16.963l67.729-67.862l-16.885-16.893L209.086,306.587z
		"/>
	<path style="fill:#116FFF;" d="M408.576,425.341c-1.021,0-2.044-0.39-2.824-1.17l-135.03-135.046c-1.561-1.561-1.561-4.088,0-5.648
		s4.089-1.561,5.649,0l135.03,135.045c1.561,1.561,1.561,4.089,0,5.649C410.621,424.951,409.599,425.341,408.576,425.341z"/>
	<path style="fill:#116FFF;" d="M391.622,442.288c-1.022,0-2.045-0.39-2.825-1.17L253.779,306.072c-1.561-1.561-1.561-4.089,0-5.649
		s4.088-1.561,5.649,0l135.019,135.046c1.561,1.561,1.561,4.089,0,5.649C393.666,441.899,392.644,442.288,391.622,442.288z"/>
	<path style="fill:#116FFF;" d="M476.372,493.129c-1.35,0-2.676-0.687-3.425-1.935l-33.902-56.506
		c-1.139-1.888-0.522-4.354,1.374-5.478c1.872-1.139,4.346-0.53,5.477,1.373l33.902,56.506c1.139,1.889,0.522,4.338-1.373,5.478
		C477.784,492.957,477.075,493.129,476.372,493.129z"/>
	<path style="fill:#116FFF;" d="M442.471,436.623c-0.421,0-0.843-0.062-1.265-0.202l-33.894-11.282
		c-2.091-0.703-3.223-2.965-2.528-5.057c0.711-2.091,2.98-3.215,5.057-2.527l33.894,11.282c2.091,0.702,3.223,2.965,2.528,5.056
		C445.7,435.563,444.141,436.623,442.471,436.623z"/>
	<path style="fill:#116FFF;" d="M459.417,510.076c-1.021,0-2.044-0.39-2.824-1.17c-1.561-1.561-1.561-4.089,0-5.649l16.955-16.947
		c1.561-1.561,4.089-1.561,5.649,0s1.56,4.089,0,5.649l-16.955,16.947C461.462,509.687,460.44,510.076,459.417,510.076z"/>
	<path style="fill:#116FFF;" d="M459.417,510.076c-0.701,0-1.412-0.172-2.052-0.562l-56.489-33.91
		c-1.896-1.123-2.513-3.589-1.374-5.478c1.147-1.888,3.62-2.496,5.478-1.373l56.49,33.91c1.896,1.139,2.513,3.589,1.373,5.478
		C462.094,509.39,460.768,510.076,459.417,510.076z"/>
	<path style="fill:#116FFF;" d="M402.928,476.182c-1.67,0-3.23-1.061-3.792-2.73l-11.307-33.894
		c-0.693-2.091,0.438-4.354,2.528-5.057c2.091-0.687,4.354,0.422,5.056,2.528l11.307,33.895c0.694,2.091-0.438,4.354-2.528,5.056
		C403.771,476.12,403.349,476.182,402.928,476.182z"/>
</g>
<g>
</g>
<g>
</g>
<g>
</g>
<g>
</g>
<g>
</g>
<g>
</g>
<g>
</g>
<g>
</g>
<g>
</g>
<g>
</g>
<g>
</g>
<g>
</g>
<g>
</g>
<g>
</g>
<g>
</g>
</svg>
