<svg height="512pt" viewBox="-82 0 511 512" width="512pt" xmlns="http://www.w3.org/2000/svg"><g fill="#001737"><path d="m271.5 150h-5c-8.28125 0-15-6.714844-15-15v-60c0-8.28125 6.71875-15 15-15h65c8.285156 0 15 6.71875 15 15 0 41.355469-33.644531 75-75 75zm0 0"/><path d="m271.5 270h-5c-8.28125 0-15-6.714844-15-15v-60c0-8.285156 6.71875-15 15-15h65c8.285156 0 15 6.714844 15 15 0 41.355469-33.644531 75-75 75zm0 0"/><path d="m271.5 390h-5c-8.28125 0-15-6.714844-15-15v-60c0-8.28125 6.71875-15 15-15h65c8.285156 0 15 6.71875 15 15 0 41.355469-33.644531 75-75 75zm0 0"/></g><path d="m80.5 150h-5c-41.355469 0-75-33.644531-75-75 0-8.28125 6.714844-15 15-15h65c8.285156 0 15 6.71875 15 15v60c0 8.285156-6.714844 15-15 15zm0 0" fill="#2e52b9"/><path d="m80.5 270h-5c-41.355469 0-75-33.644531-75-75 0-8.285156 6.714844-15 15-15h65c8.285156 0 15 6.714844 15 15v60c0 8.285156-6.714844 15-15 15zm0 0" fill="#2e52b9"/><path d="m80.5 390h-5c-41.355469 0-75-33.644531-75-75 0-8.28125 6.714844-15 15-15h65c8.285156 0 15 6.71875 15 15v60c0 8.285156-6.714844 15-15 15zm0 0" fill="#2e52b9"/><path d="m203.5 512h-60c-8.285156 0-15-6.714844-15-15v-62c0-8.28125 6.714844-15 15-15h60c8.285156 0 15 6.71875 15 15v62c0 8.285156-6.714844 15-15 15zm0 0" fill="#3aaaff"/><path d="m203.5 420h-30v92h30c8.285156 0 15-6.714844 15-15v-62c0-8.28125-6.714844-15-15-15zm0 0" fill="#008adf"/><path d="m263.5 450h-180c-8.285156 0-15-6.714844-15-15v-420c0-8.285156 6.714844-15 15-15h180c8.285156 0 15 6.714844 15 15v420c0 8.285156-6.714844 15-15 15zm0 0" fill="#00429b"/><path d="m263.5 0h-90v450h90c8.285156 0 15-6.714844 15-15v-420c0-8.285156-6.714844-15-15-15zm0 0" fill="#002659"/><path d="m173.5 150c-24.8125 0-45-20.1875-45-45s20.1875-45 45-45 45 20.1875 45 45-20.183594 45-45 45zm0 0" fill="#ff415b"/><path d="m173.5 270.003906c-24.8125 0-45-20.191406-45-45.003906s20.1875-45 45-45 45 20.1875 45 45-20.183594 45.003906-45 45.003906zm0 0" fill="#ffda2d"/><path d="m173.5 390c-24.8125 0-45-20.1875-45-45s20.1875-45 45-45 45 20.1875 45 45-20.183594 45-45 45zm0 0" fill="#00ff8d"/><path d="m173.5 60v90c24.8125 0 45-20.1875 45-45s-20.183594-45-45-45zm0 0" fill="#b20042"/><path d="m173.5 180v90.003906c24.8125 0 45-20.191406 45-45.003906s-20.183594-45-45-45zm0 0" fill="#fdbf00"/><path d="m173.5 300v90c24.8125 0 45-20.1875 45-45s-20.183594-45-45-45zm0 0" fill="#00dd7b"/></svg>